<mxfile host="app.diagrams.net" modified="2023-04-13T17:49:47.163Z" agent="Mozilla/5.0 (Windows NT 10.0; Win64; x64) AppleWebKit/537.36 (KHTML, like Gecko) Chrome/112.0.0.0 Safari/537.36 Edg/112.0.1722.39" etag="Q-Iitd7rerAVcnNe71y4" version="21.1.5" type="github">
  <diagram name="Página-1" id="LDEoYNo0WsIWAV5cOLvl">
    <mxGraphModel dx="2273" dy="814" grid="1" gridSize="10" guides="1" tooltips="1" connect="1" arrows="1" fold="1" page="1" pageScale="1" pageWidth="827" pageHeight="1169" math="0" shadow="0">
      <root>
        <mxCell id="0" />
        <mxCell id="1" parent="0" />
        <mxCell id="R3lp2fc2N_ukTkgj45sd-3" style="edgeStyle=orthogonalEdgeStyle;rounded=0;orthogonalLoop=1;jettySize=auto;html=1;entryX=0.5;entryY=0;entryDx=0;entryDy=0;" edge="1" parent="1" source="R3lp2fc2N_ukTkgj45sd-1" target="R3lp2fc2N_ukTkgj45sd-2">
          <mxGeometry relative="1" as="geometry">
            <Array as="points">
              <mxPoint x="30" y="240" />
              <mxPoint x="30" y="240" />
            </Array>
          </mxGeometry>
        </mxCell>
        <mxCell id="R3lp2fc2N_ukTkgj45sd-4" value="Metodo Post com um sorteio randomico &lt;br&gt;de 15 numeros, que não sejam repetidos" style="edgeLabel;html=1;align=center;verticalAlign=middle;resizable=0;points=[];" vertex="1" connectable="0" parent="R3lp2fc2N_ukTkgj45sd-3">
          <mxGeometry x="-0.1133" y="1" relative="1" as="geometry">
            <mxPoint as="offset" />
          </mxGeometry>
        </mxCell>
        <mxCell id="R3lp2fc2N_ukTkgj45sd-1" value="API" style="rounded=0;whiteSpace=wrap;html=1;" vertex="1" parent="1">
          <mxGeometry x="-30" y="80" width="120" height="60" as="geometry" />
        </mxCell>
        <mxCell id="R3lp2fc2N_ukTkgj45sd-20" style="edgeStyle=orthogonalEdgeStyle;rounded=0;orthogonalLoop=1;jettySize=auto;html=1;exitX=0.5;exitY=1;exitDx=0;exitDy=0;entryX=0.5;entryY=1;entryDx=0;entryDy=0;" edge="1" parent="1" source="R3lp2fc2N_ukTkgj45sd-2" target="R3lp2fc2N_ukTkgj45sd-8">
          <mxGeometry relative="1" as="geometry">
            <Array as="points">
              <mxPoint x="30" y="510" />
              <mxPoint x="340" y="510" />
            </Array>
          </mxGeometry>
        </mxCell>
        <mxCell id="R3lp2fc2N_ukTkgj45sd-21" value="Find" style="edgeLabel;html=1;align=center;verticalAlign=middle;resizable=0;points=[];" vertex="1" connectable="0" parent="R3lp2fc2N_ukTkgj45sd-20">
          <mxGeometry x="-0.1083" y="4" relative="1" as="geometry">
            <mxPoint as="offset" />
          </mxGeometry>
        </mxCell>
        <mxCell id="R3lp2fc2N_ukTkgj45sd-2" value="array 15 numeros" style="rounded=0;whiteSpace=wrap;html=1;" vertex="1" parent="1">
          <mxGeometry x="-30" y="270" width="120" height="60" as="geometry" />
        </mxCell>
        <mxCell id="R3lp2fc2N_ukTkgj45sd-6" style="edgeStyle=orthogonalEdgeStyle;rounded=0;orthogonalLoop=1;jettySize=auto;html=1;endArrow=none;endFill=0;startArrow=classic;startFill=1;" edge="1" parent="1" source="R3lp2fc2N_ukTkgj45sd-5">
          <mxGeometry relative="1" as="geometry">
            <mxPoint x="30" y="230" as="targetPoint" />
            <Array as="points">
              <mxPoint x="-130" y="230" />
            </Array>
          </mxGeometry>
        </mxCell>
        <mxCell id="R3lp2fc2N_ukTkgj45sd-5" value="nº sorteio" style="rounded=0;whiteSpace=wrap;html=1;" vertex="1" parent="1">
          <mxGeometry x="-190" y="270" width="120" height="60" as="geometry" />
        </mxCell>
        <mxCell id="R3lp2fc2N_ukTkgj45sd-9" style="edgeStyle=orthogonalEdgeStyle;rounded=0;orthogonalLoop=1;jettySize=auto;html=1;entryX=0.5;entryY=0;entryDx=0;entryDy=0;" edge="1" parent="1" source="R3lp2fc2N_ukTkgj45sd-7" target="R3lp2fc2N_ukTkgj45sd-8">
          <mxGeometry relative="1" as="geometry" />
        </mxCell>
        <mxCell id="R3lp2fc2N_ukTkgj45sd-7" value="API" style="rounded=0;whiteSpace=wrap;html=1;" vertex="1" parent="1">
          <mxGeometry x="380" y="80" width="120" height="60" as="geometry" />
        </mxCell>
        <mxCell id="R3lp2fc2N_ukTkgj45sd-8" value="Faz um post de 15 a 20 numeros" style="rounded=0;whiteSpace=wrap;html=1;" vertex="1" parent="1">
          <mxGeometry x="280" y="270" width="120" height="60" as="geometry" />
        </mxCell>
        <mxCell id="R3lp2fc2N_ukTkgj45sd-12" style="edgeStyle=orthogonalEdgeStyle;rounded=0;orthogonalLoop=1;jettySize=auto;html=1;" edge="1" parent="1" source="R3lp2fc2N_ukTkgj45sd-10" target="R3lp2fc2N_ukTkgj45sd-7">
          <mxGeometry relative="1" as="geometry" />
        </mxCell>
        <mxCell id="R3lp2fc2N_ukTkgj45sd-10" value="puxa o nº do sorteio da outra api" style="rounded=0;whiteSpace=wrap;html=1;" vertex="1" parent="1">
          <mxGeometry x="414" y="270" width="120" height="60" as="geometry" />
        </mxCell>
        <mxCell id="R3lp2fc2N_ukTkgj45sd-16" style="edgeStyle=orthogonalEdgeStyle;rounded=0;orthogonalLoop=1;jettySize=auto;html=1;entryX=1;entryY=0.5;entryDx=0;entryDy=0;" edge="1" parent="1" source="R3lp2fc2N_ukTkgj45sd-13" target="R3lp2fc2N_ukTkgj45sd-7">
          <mxGeometry relative="1" as="geometry" />
        </mxCell>
        <mxCell id="R3lp2fc2N_ukTkgj45sd-13" value="data" style="rounded=0;whiteSpace=wrap;html=1;" vertex="1" parent="1">
          <mxGeometry x="600" y="160" width="120" height="60" as="geometry" />
        </mxCell>
        <mxCell id="R3lp2fc2N_ukTkgj45sd-15" style="edgeStyle=orthogonalEdgeStyle;rounded=0;orthogonalLoop=1;jettySize=auto;html=1;" edge="1" parent="1" source="R3lp2fc2N_ukTkgj45sd-14" target="R3lp2fc2N_ukTkgj45sd-7">
          <mxGeometry relative="1" as="geometry" />
        </mxCell>
        <mxCell id="R3lp2fc2N_ukTkgj45sd-14" value="preço aposta" style="rounded=0;whiteSpace=wrap;html=1;" vertex="1" parent="1">
          <mxGeometry x="590" y="80" width="120" height="60" as="geometry" />
        </mxCell>
        <mxCell id="R3lp2fc2N_ukTkgj45sd-18" style="edgeStyle=orthogonalEdgeStyle;rounded=0;orthogonalLoop=1;jettySize=auto;html=1;entryX=1;entryY=0.5;entryDx=0;entryDy=0;" edge="1" parent="1" source="R3lp2fc2N_ukTkgj45sd-17" target="R3lp2fc2N_ukTkgj45sd-7">
          <mxGeometry relative="1" as="geometry" />
        </mxCell>
        <mxCell id="R3lp2fc2N_ukTkgj45sd-17" value="Saldo" style="rounded=0;whiteSpace=wrap;html=1;" vertex="1" parent="1">
          <mxGeometry x="610" y="260" width="120" height="60" as="geometry" />
        </mxCell>
        <mxCell id="R3lp2fc2N_ukTkgj45sd-19" value="https://app.diagrams.net/#Hevelopes%2Fdiagramas%2Fmain%2FDiagrama%20sem%20norme.drawio" style="text;html=1;align=center;verticalAlign=middle;resizable=0;points=[];autosize=1;strokeColor=none;fillColor=none;" vertex="1" parent="1">
          <mxGeometry x="129" y="370" width="570" height="30" as="geometry" />
        </mxCell>
      </root>
    </mxGraphModel>
  </diagram>
</mxfile>
